<svg width="80" height="80" viewBox="0 0 80 80" fill="none" xmlns="http://www.w3.org/2000/svg">
<g filter="url(#filter0_d_618_1720)">
<circle cx="39.718" cy="35.6133" r="25.1133" stroke="white"/>
</g>
<path d="M44.9634 25.0664H35.9806C33.0571 25.0664 30.6787 27.4448 30.6787 30.3683V39.3512C30.6787 42.2746 33.0571 44.653 35.9806 44.653H44.9635C47.8869 44.653 50.2653 42.2746 50.2653 39.3512V30.3683C50.2653 27.4448 47.8869 25.0664 44.9634 25.0664V25.0664ZM49.1171 39.3512C49.1171 41.6415 47.2538 43.5047 44.9634 43.5047H35.9806C33.6903 43.5047 31.827 41.6415 31.827 39.3512V30.3683C31.827 28.0779 33.6903 26.2147 35.9806 26.2147H44.9635C47.2538 26.2147 49.1171 28.0779 49.1171 30.3683V39.3512Z" fill="white"/>
<path d="M45.9563 27.6021C45.0836 27.6021 44.3738 28.312 44.3738 29.1846C44.3738 30.0572 45.0836 30.7672 45.9563 30.7672C46.829 30.7672 47.5389 30.0572 47.5389 29.1846C47.5389 28.3119 46.829 27.6021 45.9563 27.6021ZM45.9563 29.6188C45.7169 29.6188 45.522 29.4239 45.522 29.1846C45.522 28.945 45.7169 28.7503 45.9563 28.7503C46.1958 28.7503 46.3907 28.945 46.3907 29.1846C46.3907 29.4239 46.1958 29.6188 45.9563 29.6188Z" fill="white"/>
<path d="M40.4686 29.5039C37.5155 29.5039 35.113 31.9064 35.113 34.8595C35.113 37.8126 37.5155 40.215 40.4686 40.215C43.4217 40.215 45.8242 37.8126 45.8242 34.8595C45.8242 31.9064 43.4217 29.5039 40.4686 29.5039ZM40.4686 39.0668C38.1488 39.0668 36.2613 37.1794 36.2613 34.8595C36.2613 32.5397 38.1488 30.6522 40.4686 30.6522C42.7886 30.6522 44.6759 32.5397 44.6759 34.8595C44.6759 37.1794 42.7886 39.0668 40.4686 39.0668Z" fill="white"/>
<defs>
<filter id="filter0_d_618_1720" x="0.104736" y="0" width="79.2263" height="79.2266" filterUnits="userSpaceOnUse" color-interpolation-filters="sRGB">
<feFlood flood-opacity="0" result="BackgroundImageFix"/>
<feColorMatrix in="SourceAlpha" type="matrix" values="0 0 0 0 0 0 0 0 0 0 0 0 0 0 0 0 0 0 127 0" result="hardAlpha"/>
<feOffset dy="4"/>
<feGaussianBlur stdDeviation="7"/>
<feColorMatrix type="matrix" values="0 0 0 0 0 0 0 0 0 0 0 0 0 0 0 0 0 0 0.15 0"/>
<feBlend mode="normal" in2="BackgroundImageFix" result="effect1_dropShadow_618_1720"/>
<feBlend mode="normal" in="SourceGraphic" in2="effect1_dropShadow_618_1720" result="shape"/>
</filter>
</defs>
</svg>
